<?xml version="1.0" encoding="UTF-8" standalone="no"?>
<!-- Created with Inkscape (http://www.inkscape.org/) -->
<svg
   xmlns:dc="http://purl.org/dc/elements/1.1/"
   xmlns:cc="http://web.resource.org/cc/"
   xmlns:rdf="http://www.w3.org/1999/02/22-rdf-syntax-ns#"
   xmlns:svg="http://www.w3.org/2000/svg"
   xmlns="http://www.w3.org/2000/svg"
   xmlns:sodipodi="http://sodipodi.sourceforge.net/DTD/sodipodi-0.dtd"
   xmlns:inkscape="http://www.inkscape.org/namespaces/inkscape"
   width="210mm"
   height="297mm"
   id="svg5270"
   sodipodi:version="0.32"
   inkscape:version="0.45"
   sodipodi:modified="true">
  <defs
     id="defs5272" />
  <sodipodi:namedview
     id="base"
     pagecolor="#ffffff"
     bordercolor="#666666"
     borderopacity="1.0"
     inkscape:pageopacity="0.0"
     inkscape:pageshadow="2"
     inkscape:zoom="0.35"
     inkscape:cx="596.13"
     inkscape:cy="530.69639"
     inkscape:document-units="px"
     inkscape:current-layer="layer1"
     inkscape:window-width="868"
     inkscape:window-height="626"
     inkscape:window-x="55"
     inkscape:window-y="44" />
  <metadata
     id="metadata5275">
    <rdf:RDF>
      <cc:Work
         rdf:about="">
        <dc:format>image/svg+xml</dc:format>
        <dc:type
           rdf:resource="http://purl.org/dc/dcmitype/StillImage" />
      </cc:Work>
    </rdf:RDF>
  </metadata>
  <g
     inkscape:label="Camada 1"
     inkscape:groupmode="layer"
     id="layer1">
    <path
       style="fill:#000000;fill-rule:evenodd;stroke:#000000;stroke-width:7.091959px;stroke-linecap:butt;stroke-linejoin:miter;stroke-opacity:1"
       d="M 110.13021,429.96229 L 247.78202,331.15927 C 319.92219,285.19291 371.12144,310.84146 375.04505,323.74904 C 266.12793,363.63731 245.77088,420.93788 286.73998,441.07765 L 878.9027,244.70665 C 886.8517,266.64849 894.9607,285.27419 899.6804,298.73965 L 298.42766,509.00467 C 226.77164,531.99752 230.74977,617.56081 312.71208,605.33779 C 347.97716,595.21872 396.07988,601.27095 351.67023,644.85889 C 321.78085,671.11422 285.79298,671.27008 249.08075,668.32464 C 204.17464,666.45801 162.02165,662.90947 114.02604,717.72624 C 60.60074,800.55572 -83.98101,876.11835 -167.7707,794.29836 C -261.40662,663.54388 -251.98226,462.81594 -58.68809,423.78709 L 110.13021,429.96229 z "
       id="path3231"
       sodipodi:nodetypes="cccccccccccccc" />
    <path
       style="fill:#ffffff;fill-rule:evenodd;stroke:#000000;stroke-width:7.091959px;stroke-linecap:butt;stroke-linejoin:miter;stroke-opacity:1"
       d="M -26.22287,633.74353 C -42.77273,724.53638 -82.65661,764.2378 -130.11127,783.18318 L -131.40982,799.23871 C -76.86852,804.46597 -22.32723,805.09599 32.21408,758.48238 C 95.44305,702.78524 124.25847,627.99619 304.9206,637.44865 C 327.71613,635.02308 345.62012,629.49583 347.7744,613.98289 C 275.94463,630.61827 221.26879,608.63403 234.79596,531.23538 L -11.28917,617.68818 L -26.22287,633.74353 z "
       id="path3233"
       sodipodi:nodetypes="ccccccccc" />
    <path
       style="fill:#808080;fill-rule:evenodd;stroke:#000000;stroke-width:7.091959px;stroke-linecap:butt;stroke-linejoin:miter;stroke-opacity:1"
       d="M -34.01472,536.79307 L -10.6399,617.68818 L -28.82016,636.2136 L -47.00076,644.85889 L -61.28519,653.50416 L -104.13917,648.564 L -124.91671,581.87203 L -100.24352,563.34642 L -85.95874,541.1157 L -61.28519,534.94051 L -34.01472,536.79307 z "
       id="path3235"
       sodipodi:nodetypes="ccccccccccc" />
    <path
       style="fill:#ffffff;fill-rule:evenodd;stroke:#000000;stroke-width:7.091959px;stroke-linecap:butt;stroke-linejoin:miter;stroke-opacity:1"
       d="M -36.61182,530.00034 C -36.85064,505.71439 -25.41057,485.74809 36.10991,484.30404 C 143.09644,485.44478 179.48422,456.37103 219.21282,428.72724 C 241.91918,422.77619 248.28076,439.77979 250.3793,453.42805 L -32.71599,543.5856 L -36.61182,530.00034 z "
       id="path3239"
       sodipodi:nodetypes="cccccc" />
    <path
       style="fill:#ffffff;fill-opacity:1;fill-rule:evenodd;stroke:#000000;stroke-width:7.091959px;stroke-linecap:butt;stroke-linejoin:miter;stroke-opacity:1"
       d="M -30.11889,542.96809 L -9.34117,620.15826 L 895.7845,300.28328 L 877.6042,244.70665 L -30.11889,542.35075 L -30.11889,542.96809 z "
       id="path3237"
       sodipodi:nodetypes="cccccc" />
    <path
       sodipodi:type="arc"
       style="fill:#ff0000;fill-opacity:1;stroke:none;stroke-opacity:1"
       id="path3241"
       sodipodi:cx="363.39285"
       sodipodi:cy="796.64789"
       sodipodi:rx="1.6071428"
       sodipodi:ry="1.4285715"
       d="M 365 796.64789 A 1.6071428 1.4285715 0 1 1  361.78571,796.64789 A 1.6071428 1.4285715 0 1 1  365 796.64789 z"
       transform="matrix(7.2721719,0,0,6.9162113,-2642.9066,-4864.9265)" />
    <path
       sodipodi:type="arc"
       style="fill:#000000;fill-opacity:1;stroke:none;stroke-opacity:1"
       id="path4215"
       sodipodi:cx="363.39285"
       sodipodi:cy="796.64789"
       sodipodi:rx="1.6071428"
       sodipodi:ry="1.4285715"
       d="M 365 796.64789 A 1.6071428 1.4285715 0 1 1  361.78571,796.64789 A 1.6071428 1.4285715 0 1 1  365 796.64789 z"
       transform="matrix(7.2721719,0,0,6.9162113,-2667.3462,-4795.0338)" />
    <path
       sodipodi:type="arc"
       style="fill:#000000;fill-opacity:1;stroke:none;stroke-opacity:1"
       id="path4217"
       sodipodi:cx="363.39285"
       sodipodi:cy="796.64789"
       sodipodi:rx="1.6071428"
       sodipodi:ry="1.4285715"
       d="M 365 796.64789 A 1.6071428 1.4285715 0 1 1  361.78571,796.64789 A 1.6071428 1.4285715 0 1 1  365 796.64789 z"
       transform="matrix(7.2721719,0,0,6.9162113,-2654.3601,-4828.9975)" />
    <path
       style="fill:none;fill-rule:evenodd;stroke:#000000;stroke-width:7.091959px;stroke-linecap:butt;stroke-linejoin:miter;stroke-opacity:1"
       d="M 27.66897,686.85023 L 23.12387,705.99318 L 29.61698,704.14081 L 34.16209,689.32015 L 27.66897,686.85023 z "
       id="path4219" />
    <path
       style="fill:#000000;fill-rule:evenodd;stroke:#000000;stroke-width:7.091959px;stroke-linecap:butt;stroke-linejoin:miter;stroke-opacity:1"
       d="M 5.5927,517.64994 L 32.86335,620.15826 L 54.93963,612.74784 L 25.07187,510.23971 L 5.5927,517.64994 z "
       id="path5190" />
    <path
       style="fill:#000000;fill-rule:evenodd;stroke:#000000;stroke-width:7.091959px;stroke-linecap:butt;stroke-linejoin:miter;stroke-opacity:1"
       d="M 67.92567,499.74204 L 98.44271,599.77993 L 118.57114,593.60473 L 85.45683,493.56667 L 67.92567,499.74204 z "
       id="path5192" />
    <path
       style="fill:#000000;fill-rule:evenodd;stroke:#000000;stroke-width:7.091959px;stroke-linecap:butt;stroke-linejoin:miter;stroke-opacity:1"
       d="M 128.31065,482.45148 L 160.77568,581.87203 L 179.60556,575.69683 L 143.2447,477.51115 L 128.31065,482.45148 z "
       id="path5194" />
    <path
       style="fill:none;fill-rule:evenodd;stroke:#000000;stroke-width:7.091959px;stroke-linecap:butt;stroke-linejoin:miter;stroke-opacity:1"
       d="M -24.92432,554.70115 L 886.6943,253.35193 L -24.92432,554.70115 z "
       id="path5196" />
    <path
       style="fill:none;fill-rule:evenodd;stroke:#000000;stroke-width:7.36342192px;stroke-linecap:butt;stroke-linejoin:miter;stroke-opacity:1"
       d="M -11.79917,602.73522 L 911.2285,281.89032 L -11.79917,602.73522 z "
       id="path5198" />
    <path
       style="fill:none;fill-rule:evenodd;stroke:#000000;stroke-width:7.20313311px;stroke-linecap:butt;stroke-linejoin:miter;stroke-opacity:1"
       d="M -24.77467,570.95616 L 896.9332,263.03256 L -24.77467,570.95616 z "
       id="path5200" />
    <path
       style="fill:none;fill-rule:evenodd;stroke:#000000;stroke-width:7.26909399px;stroke-linecap:butt;stroke-linejoin:miter;stroke-opacity:1"
       d="M -17.04191,586.72562 L 903.4854,273.19895 L -17.04191,586.72562 z "
       id="path5202" />
    <path
       style="fill:none;fill-rule:evenodd;stroke:#000000;stroke-width:7.091959px;stroke-linecap:butt;stroke-linejoin:miter;stroke-opacity:1"
       d="M 251.03121,445.9214 L 274.40058,517.74653 L 251.03121,445.9214 z "
       id="path5216" />
    <path
       id="path5220"
       d="M 558.40611,347.97868 L 577.97215,416.18666 L 558.40611,347.97868 z "
       style="fill:none;fill-rule:evenodd;stroke:#000000;stroke-width:6.32370377px;stroke-linecap:butt;stroke-linejoin:miter;stroke-opacity:1" />
    <path
       style="fill:none;fill-rule:evenodd;stroke:#000000;stroke-width:6.10086441px;stroke-linecap:butt;stroke-linejoin:miter;stroke-opacity:1"
       d="M 610.236,331.81461 L 629.11213,397.61991 L 610.236,331.81461 z "
       id="path5222" />
    <path
       id="path5224"
       d="M 660.88148,314.52405 L 679.75758,380.32934 L 660.88148,314.52405 z "
       style="fill:none;fill-rule:evenodd;stroke:#000000;stroke-width:6.10086441px;stroke-linecap:butt;stroke-linejoin:miter;stroke-opacity:1" />
    <path
       style="fill:none;fill-rule:evenodd;stroke:#000000;stroke-width:5.96493959px;stroke-linecap:butt;stroke-linejoin:miter;stroke-opacity:1"
       d="M 712.7559,299.63725 L 731.7715,362.08189 L 712.7559,299.63725 z "
       id="path5226" />
    <path
       id="path5228"
       d="M 756.87264,284.78281 L 775.95968,345.54872 L 756.87264,284.78281 z "
       style="fill:none;fill-rule:evenodd;stroke:#000000;stroke-width:5.89526176px;stroke-linecap:butt;stroke-linejoin:miter;stroke-opacity:1" />
    <path
       style="fill:none;fill-rule:evenodd;stroke:#000000;stroke-width:5.43234873px;stroke-linecap:butt;stroke-linejoin:miter;stroke-opacity:1"
       d="M 800.7877,270.97166 L 817.5946,329.5692 L 800.7877,270.97166 z "
       id="path5230" />
    <path
       id="path5232"
       d="M 841.1241,254.99196 L 858.6898,314.31135 L 841.1241,254.99196 z "
       style="fill:none;fill-rule:evenodd;stroke:#000000;stroke-width:5.5877409px;stroke-linecap:butt;stroke-linejoin:miter;stroke-opacity:1" />
    <path
       id="path5234"
       d="M 296.4823,434.80587 L 319.85166,506.63118 L 296.4823,434.80587 z "
       style="fill:none;fill-rule:evenodd;stroke:#000000;stroke-width:7.091959px;stroke-linecap:butt;stroke-linejoin:miter;stroke-opacity:1" />
    <path
       style="fill:none;fill-rule:evenodd;stroke:#000000;stroke-width:6.28932953px;stroke-linecap:butt;stroke-linejoin:miter;stroke-opacity:1"
       d="M 358.82458,414.92296 L 380.18106,480.87972 L 358.82458,414.92296 z "
       id="path5236" />
    <path
       id="path5238"
       d="M 419.62071,396.30199 L 441.61133,463.32279 L 419.62071,396.30199 z "
       style="fill:none;fill-rule:evenodd;stroke:#000000;stroke-width:6.64550781px;stroke-linecap:butt;stroke-linejoin:miter;stroke-opacity:1" />
    <path
       style="fill:none;fill-rule:evenodd;stroke:#000000;stroke-width:6.34128666px;stroke-linecap:butt;stroke-linejoin:miter;stroke-opacity:1"
       d="M 458.42287,382.56824 L 478.88897,448.1392 L 458.42287,382.56824 z "
       id="path5240" />
    <path
       id="path5242"
       d="M 505.2432,365.34507 L 525.56789,434.27472 L 505.2432,365.34507 z "
       style="fill:none;fill-rule:evenodd;stroke:#000000;stroke-width:6.47917175px;stroke-linecap:butt;stroke-linejoin:miter;stroke-opacity:1" />
    <path
       id="path5244"
       d="M 251.03121,445.9214 L 274.40058,517.74653 L 251.03121,445.9214 z "
       style="fill:none;fill-rule:evenodd;stroke:#000000;stroke-width:7.091959px;stroke-linecap:butt;stroke-linejoin:miter;stroke-opacity:1" />
    <path
       style="fill:none;fill-rule:evenodd;stroke:#000000;stroke-width:7.091959px;stroke-linecap:butt;stroke-linejoin:miter;stroke-opacity:1"
       d="M 251.03121,445.9214 L 274.40058,517.74653 L 251.03121,445.9214 z "
       id="path5246" />
    <path
       id="path5248"
       d="M 251.03121,445.9214 L 274.40058,517.74653 L 251.03121,445.9214 z "
       style="fill:none;fill-rule:evenodd;stroke:#000000;stroke-width:7.091959px;stroke-linecap:butt;stroke-linejoin:miter;stroke-opacity:1" />
    <path
       style="fill:none;fill-rule:evenodd;stroke:#000000;stroke-width:7.091959px;stroke-linecap:butt;stroke-linejoin:miter;stroke-opacity:1"
       d="M 389.98175,402.695 L 413.35094,474.52013 L 389.98175,402.695 z "
       id="path5250" />
    <path
       id="path5252"
       d="M 325.05167,423.6905 L 348.42104,495.51581 L 325.05167,423.6905 z "
       style="fill:none;fill-rule:evenodd;stroke:#000000;stroke-width:7.091959px;stroke-linecap:butt;stroke-linejoin:miter;stroke-opacity:1" />
    <path
       style="fill:none;fill-rule:evenodd;stroke:#000000;stroke-width:7.091959px;stroke-linecap:butt;stroke-linejoin:miter;stroke-opacity:1"
       d="M 271.80893,440.98123 L 295.17829,512.80638 L 271.80893,440.98123 z "
       id="path5254" />
    <path
       style="fill:#000000;fill-rule:evenodd;stroke:#000000;stroke-width:7.091959px;stroke-linecap:butt;stroke-linejoin:miter;stroke-opacity:1"
       d="M 878.2533,243.47161 L 884.0972,235.44384 L 1039.9295,220.00585 L 1072.3946,225.56352 L 1084.082,236.67889 L 1091.2241,254.58698 L 1088.6271,271.25983 L 1081.4847,280.5228 L 1071.0959,276.81752 L 1065.9015,263.84977 L 1053.5648,260.76216 L 1045.1237,260.14465 L 958.7668,308.92855 L 938.6386,310.78111 L 919.8087,310.78111 L 907.472,302.13584 L 900.3298,297.81319 L 878.2533,243.47161 z "
       id="path5256" />
    <path
       style="fill:#000000;fill-rule:evenodd;stroke:#000000;stroke-width:5.02837515px;stroke-linecap:butt;stroke-linejoin:miter;stroke-opacity:1"
       d="M 897.9729,222.12266 L 899.401,233.9801 L 911.7764,233.55646 L 910.3485,220.85208 L 897.9729,222.12266 z "
       id="path5258" />
    <path
       id="path5260"
       d="M 1030.4305,209.77244 L 1031.8583,221.62969 L 1044.2341,221.20624 L 1042.806,208.50186 L 1030.4305,209.77244 z "
       style="fill:#000000;fill-rule:evenodd;stroke:#000000;stroke-width:5.02837515px;stroke-linecap:butt;stroke-linejoin:miter;stroke-opacity:1" />
    <path
       style="fill:#000000;fill-rule:evenodd;stroke:#000000;stroke-width:5.02837515px;stroke-linecap:butt;stroke-linejoin:miter;stroke-opacity:1"
       d="M 1004.4584,212.24234 L 1005.8865,224.0996 L 1018.2619,223.67631 L 1016.8342,210.97176 L 1004.4584,212.24234 z "
       id="path5262" />
    <path
       id="path5264"
       d="M 979.1356,214.71241 L 980.5636,226.56968 L 992.9391,226.14621 L 991.5112,213.44185 L 979.1356,214.71241 z "
       style="fill:#000000;fill-rule:evenodd;stroke:#000000;stroke-width:5.02837515px;stroke-linecap:butt;stroke-linejoin:miter;stroke-opacity:1" />
    <path
       style="fill:#000000;fill-rule:evenodd;stroke:#000000;stroke-width:5.02837515px;stroke-linecap:butt;stroke-linejoin:miter;stroke-opacity:1"
       d="M 952.5142,217.1825 L 953.9421,229.03976 L 966.3178,228.61629 L 964.8899,215.91192 L 952.5142,217.1825 z "
       id="path5266" />
    <path
       id="path5268"
       d="M 923.945,219.65258 L 925.3731,231.51001 L 937.7484,231.08638 L 936.3207,218.382 L 923.945,219.65258 z "
       style="fill:#000000;fill-rule:evenodd;stroke:#000000;stroke-width:5.02837515px;stroke-linecap:butt;stroke-linejoin:miter;stroke-opacity:1" />
  </g>
</svg>
